<svg width="447" height="139" viewBox="0 0 447 139" fill="none" xmlns="http://www.w3.org/2000/svg">
<path d="M162.96 43.928C164.581 42.8613 166.352 42.072 168.272 41.56C170.192 41.048 172.091 40.792 173.968 40.792C175.845 40.792 177.595 40.92 179.216 41.176C180.88 41.3893 182.565 41.7733 184.272 42.328C186.021 42.8827 187.451 43.736 188.56 44.888C189.669 46.04 190.288 47.4053 190.416 48.984C190.459 49.624 190.203 50.1147 189.648 50.456C189.136 50.7547 188.539 50.904 187.856 50.904C187.216 50.904 186.725 50.7547 186.384 50.456C186.085 50.1147 185.787 49.624 185.488 48.984C183.867 45.6987 180.325 44.056 174.864 44.056C171.152 44.056 168.101 44.8453 165.712 46.424C163.365 48.0027 162.192 50.3067 162.192 53.336C162.192 55.0427 162.725 56.5147 163.792 57.752C164.859 58.9467 166.245 59.8853 167.952 60.568C169.701 61.2507 171.6 61.8693 173.648 62.424C175.739 62.9787 177.808 63.5973 179.856 64.28C181.947 64.9627 183.845 65.7733 185.552 66.712C187.301 67.6507 188.709 68.9733 189.776 70.68C190.843 72.344 191.376 74.3493 191.376 76.696C191.376 80.1093 189.691 83.0107 186.32 85.4C182.992 87.7893 178.789 88.984 173.712 88.984C169.787 88.984 165.947 88.152 162.192 86.488C158.437 84.824 156.56 83.1173 156.56 81.368C156.56 80.8987 156.837 80.472 157.392 80.088C157.947 79.6613 158.48 79.448 158.992 79.448C159.547 79.448 160.059 79.6187 160.528 79.96C160.997 80.2587 161.531 80.6853 162.128 81.24C162.725 81.7947 163.259 82.2213 163.728 82.52C166.971 84.568 170.597 85.592 174.608 85.592C177.424 85.592 180.176 84.7387 182.864 83.032C185.552 81.2827 186.896 78.9573 186.896 76.056C186.896 74.0933 186.171 72.472 184.72 71.192C183.269 69.8693 181.456 68.9307 179.28 68.376C177.104 67.7787 174.736 67.1173 172.176 66.392C169.659 65.6667 167.312 64.92 165.136 64.152C162.96 63.384 161.147 62.1467 159.696 60.44C158.245 58.7333 157.52 56.7067 157.52 54.36C157.52 51.9707 158.011 49.9013 158.992 48.152C160.016 46.36 161.339 44.952 162.96 43.928ZM197.34 60.184C195.42 60.184 194.119 59.7147 193.436 58.776C193.436 58.0933 193.713 57.56 194.268 57.176C194.865 56.792 195.505 56.5573 196.188 56.472C196.871 56.344 197.98 56.2373 199.516 56.152C199.644 55 199.708 53.528 199.708 51.736C199.751 49.9013 199.793 48.344 199.836 47.064C199.964 43.6933 200.476 41.624 201.372 40.856C201.756 40.5147 202.161 40.344 202.588 40.344C203.057 40.344 203.463 40.3867 203.804 40.472C203.932 43.544 203.996 45.4 203.996 46.04L203.612 55.64C203.697 55.6827 203.932 55.704 204.316 55.704L208.924 55.512C212.252 55.512 213.916 56.024 213.916 57.048C213.916 58.4987 213.319 59.352 212.124 59.608C211.569 59.736 210.908 59.8 210.14 59.8C209.415 59.8 208.455 59.7147 207.26 59.544C206.108 59.3307 205.276 59.224 204.764 59.224C204.252 59.224 203.911 59.2453 203.74 59.288C203.612 60.5253 203.548 61.7627 203.548 63C203.548 64.1947 203.569 65.7093 203.612 67.544C203.697 69.336 203.868 71.4907 204.124 74.008C204.423 76.5253 205.041 78.7013 205.98 80.536C206.919 82.328 208.113 83.224 209.564 83.224C210.289 83.224 211.143 82.9467 212.124 82.392C213.105 81.7947 213.852 81.496 214.364 81.496C214.919 81.496 215.388 81.624 215.772 81.88C216.199 82.0933 216.412 82.3493 216.412 82.648C216.412 83.544 215.495 84.4187 213.66 85.272C211.868 86.0827 210.332 86.488 209.052 86.488C204.359 86.488 201.436 82.0507 200.284 73.176C199.943 70.616 199.687 66.2213 199.516 59.992C198.833 60.12 198.108 60.184 197.34 60.184ZM240.438 68.568L240.118 75.928C240.118 79.64 240.544 82.136 241.398 83.416C241.91 84.2693 242.614 84.696 243.51 84.696C243.766 84.696 244.128 84.632 244.598 84.504C245.494 84.248 246.24 84.376 246.838 84.888C246.539 86.3813 245.046 87.128 242.358 87.128C240.523 87.128 239.307 86.36 238.71 84.824C238.24 83.672 237.899 82.2427 237.686 80.536C237.472 78.7867 237.302 77.592 237.174 76.952C234.4 82.2427 231.712 85.464 229.11 86.616C227.787 87.2133 226.251 87.512 224.502 87.512C222.752 87.512 221.387 86.68 220.406 85.016C219.467 83.3093 218.998 80.8347 218.998 77.592C218.998 74.3493 219.531 70.9573 220.598 67.416C221.664 63.832 223.222 60.824 225.27 58.392C227.318 55.9173 229.558 54.68 231.99 54.68C235.488 54.68 237.814 56.1307 238.966 59.032C239.947 61.5067 240.438 64.6853 240.438 68.568ZM224.758 66.52C224.16 68.824 223.712 71.0213 223.414 73.112C223.115 75.16 222.966 76.9947 222.966 78.616C222.966 80.1947 223.286 81.56 223.926 82.712C224.608 83.864 225.483 84.44 226.55 84.44C228.854 84.44 231.072 82.264 233.206 77.912C235.339 73.56 236.406 69.5067 236.406 65.752C236.406 63.32 235.766 61.3147 234.486 59.736C233.632 58.712 232.502 58.2 231.094 58.2C229.728 58.2 228.47 59.0107 227.318 60.632C226.208 62.2107 225.355 64.1733 224.758 66.52ZM255.236 80.728L255.428 84.376C255.428 85.3147 255.15 85.976 254.595 86.36C254.084 86.7013 253.55 86.872 252.996 86.872C252.484 86.872 251.95 86.7867 251.396 86.616C250.457 81.6667 249.732 75.5013 249.22 68.12C248.75 60.7387 248.473 56.5573 248.388 55.576C249.028 54.9787 249.689 54.68 250.372 54.68C251.097 54.68 251.737 54.7653 252.292 54.936C252.462 56.1733 252.59 58.904 252.676 63.128C252.761 67.352 252.868 69.9973 252.996 71.064C253.593 67.48 254.66 64.1307 256.196 61.016C257.049 59.2667 258.158 57.88 259.524 56.856C260.932 55.7893 262.425 55.256 264.003 55.256C265.625 55.256 267.097 55.9813 268.42 57.432C269.785 58.84 270.468 60.12 270.468 61.272C270.468 61.6987 270.212 62.04 269.7 62.296C269.188 62.5093 268.612 62.616 267.972 62.616C267.374 62.616 266.905 62.3813 266.564 61.912C266.222 61.4427 265.988 60.9307 265.86 60.376C265.732 59.7787 265.454 59.2453 265.028 58.776C264.601 58.3067 264.025 58.072 263.3 58.072C261.38 58.072 259.737 59.8 258.372 63.256C256.281 68.4187 255.236 74.2427 255.236 80.728ZM274.528 60.184C272.608 60.184 271.306 59.7147 270.623 58.776C270.623 58.0933 270.901 57.56 271.456 57.176C272.053 56.792 272.693 56.5573 273.376 56.472C274.058 56.344 275.168 56.2373 276.704 56.152C276.832 55 276.896 53.528 276.896 51.736C276.938 49.9013 276.981 48.344 277.024 47.064C277.152 43.6933 277.664 41.624 278.56 40.856C278.944 40.5147 279.349 40.344 279.776 40.344C280.245 40.344 280.65 40.3867 280.992 40.472C281.12 43.544 281.184 45.4 281.184 46.04L280.8 55.64C280.885 55.6827 281.12 55.704 281.504 55.704L286.112 55.512C289.44 55.512 291.104 56.024 291.104 57.048C291.104 58.4987 290.506 59.352 289.312 59.608C288.757 59.736 288.096 59.8 287.328 59.8C286.602 59.8 285.642 59.7147 284.448 59.544C283.296 59.3307 282.464 59.224 281.952 59.224C281.44 59.224 281.098 59.2453 280.928 59.288C280.8 60.5253 280.736 61.7627 280.736 63C280.736 64.1947 280.757 65.7093 280.8 67.544C280.885 69.336 281.056 71.4907 281.312 74.008C281.61 76.5253 282.229 78.7013 283.168 80.536C284.106 82.328 285.301 83.224 286.752 83.224C287.477 83.224 288.33 82.9467 289.312 82.392C290.293 81.7947 291.04 81.496 291.552 81.496C292.106 81.496 292.576 81.624 292.96 81.88C293.386 82.0933 293.6 82.3493 293.6 82.648C293.6 83.544 292.682 84.4187 290.848 85.272C289.056 86.0827 287.52 86.488 286.24 86.488C281.546 86.488 278.624 82.0507 277.472 73.176C277.13 70.616 276.874 66.2213 276.704 59.992C276.021 60.12 275.296 60.184 274.528 60.184Z" fill="white"/>
<path d="M28.965 97.6124C-59.2656 35.2924 132.507 6.33039 232.022 7.29094C241.757 5.44668 225.802 4.40928 216.608 4.1211C138.456 2.19999 0 20.5466 0 64.9243C0 128.609 174.422 137.254 214.986 138.695C289.622 141.346 465.667 127.457 445.385 67.5178C425.103 7.57911 257.171 -1.01049 203.628 0.0867675C169.879 0.778373 177.667 3.06449 185.78 4.1211C362.636 -1.93041 440.737 49.1335 440.737 75.3567C440.737 147.687 99.5451 147.465 28.965 97.6124Z" fill="white"/>
</svg>
