<svg width="581" height="915" viewBox="0 0 581 915" fill="none" xmlns="http://www.w3.org/2000/svg">
<path fill-rule="evenodd" clip-rule="evenodd" d="M218.076 81.8489C217.239 86.3304 223.542 82.7825 226.798 80.4484L244.241 18.127C249.707 38.9008 260.848 80.7285 261.685 81.8489C262.731 83.2494 267.965 81.8489 270.756 80.4484C273.547 79.0479 251.568 5.52263 249.125 2.02142C246.683 -1.47978 243.544 0.270819 240.753 2.02142C237.962 3.77202 219.122 76.247 218.076 81.8489ZM8.41147 109.07L441.911 110.887V116.887H18.166L31.1999 511.392L580.411 441.543V453.387L22.3246 527.887C17.0229 527.203 14.419 523.615 13.9791 520.01C13.8104 519.94 13.6399 519.868 13.4677 519.794L0.0666546 114.178C-0.450878 112.046 2.01859 109.488 8.41147 109.07ZM185.237 529.312L173.604 528.305L140.245 913.865L151.879 914.871L185.237 529.312ZM356.911 507.643L368.259 504.887L459.595 880.954L448.247 883.71L356.911 507.643ZM100.76 268.488C99.3947 269.256 98.712 270.408 98.712 271.944C98.712 273.224 100.333 273.864 103.576 273.864C106.904 273.864 111.512 273.523 117.4 272.84C123.373 272.157 127.853 271.816 130.84 271.816C140.056 271.816 144.664 274.291 144.664 279.24C144.664 282.568 143.384 286.835 140.824 292.04L139.288 295.112C138.947 295.709 138.349 296.776 137.496 298.312C136.643 299.848 136.173 300.744 136.088 301C127.555 317.043 120.387 331.592 114.584 344.648C114.328 345.16 114.2 345.672 114.2 346.184C114.2 347.464 115.181 348.104 117.144 348.104C120.301 348.104 122.264 347.293 123.032 345.672L148.12 293.448C151.619 286.451 153.368 281.416 153.368 278.344C153.368 273.736 151.448 270.365 147.608 268.232C143.853 266.013 139.885 264.904 135.704 264.904C131.608 264.904 126.232 265.331 119.576 266.184C113.005 266.952 108.568 267.336 106.264 267.336C104.045 267.336 102.211 267.72 100.76 268.488ZM195.085 285.896C192.866 285.896 191.032 286.877 189.581 288.84C190.178 296.093 191.714 302.621 194.189 308.424C196.749 314.141 200.162 320.328 204.429 326.984C203.49 328.776 201.656 332.104 198.925 336.968C196.28 341.832 194.274 345.672 192.909 348.488C193.848 348.744 194.829 348.872 195.853 348.872C196.962 348.872 198.242 348.488 199.693 347.72C201.144 346.867 202.296 345.715 203.149 344.264C204.002 342.728 205.026 340.68 206.221 338.12C207.501 335.56 208.482 333.768 209.165 332.744C211.128 334.621 212.28 335.773 212.621 336.2C213.048 336.541 214.37 337.608 216.589 339.4C222.562 344.093 228.536 346.44 234.509 346.44C238.093 346.44 240.354 344.989 241.293 342.088C240.61 341.405 239.373 341.064 237.581 341.064C234.082 341.064 230.37 339.784 226.445 337.224C223.458 335.347 221.112 333.555 219.405 331.848C217.784 330.056 215.778 327.667 213.389 324.68C214.328 322.803 215.821 319.859 217.869 315.848C219.917 311.837 222.093 307.443 224.397 302.664C226.701 297.885 228.706 292.723 230.413 287.176C229.645 286.92 228.621 286.792 227.341 286.792C226.146 286.792 224.525 287.347 222.477 288.456C217.186 301.171 212.664 311.027 208.909 318.024C203.192 308.467 199.437 297.971 197.645 286.536C196.792 286.109 195.938 285.896 195.085 285.896ZM318.26 262.984C314.079 261.875 310.495 261.32 307.508 261.32C298.719 261.32 290.527 264.093 282.932 269.64C275.423 275.101 271.668 281.544 271.668 288.968C271.668 296.307 278.196 303.731 291.252 311.24C285.023 315.592 280.329 319.56 277.172 323.144C274.1 326.728 272.564 330.397 272.564 334.152C272.564 343.709 281.993 348.488 300.852 348.488C309.812 348.488 317.407 347.208 323.636 344.648C329.865 342.003 332.98 338.803 332.98 335.048C332.98 332.829 332.169 330.696 330.548 328.648C329.609 327.539 328.671 326.515 327.732 325.576C326.879 324.552 325.684 323.485 324.148 322.376C322.697 321.181 321.417 320.2 320.308 319.432C319.284 318.664 317.833 317.725 315.956 316.616C314.079 315.421 312.671 314.568 311.732 314.056C310.879 313.459 309.513 312.648 307.636 311.624C305.759 310.515 304.564 309.789 304.052 309.448C312.415 304.243 319.369 299.251 324.916 294.472C328.415 291.485 331.06 288.499 332.852 285.512C334.729 282.525 335.668 279.581 335.668 276.68C335.668 273.693 333.791 270.963 330.036 268.488C326.367 265.928 322.441 264.093 318.26 262.984ZM300.852 316.616C309.215 321.224 315.615 325.491 320.052 329.416C322.697 331.72 324.02 333.896 324.02 335.944C324.02 337.992 321.759 339.613 317.236 340.808C312.799 342.003 307.679 342.6 301.876 342.6C296.159 342.6 291.423 341.747 287.668 340.04C283.913 338.333 282.036 336.029 282.036 333.128C282.036 330.227 283.401 327.027 286.132 323.528C288.948 320.029 292.447 316.915 296.628 314.184C297.14 314.525 298.548 315.336 300.852 316.616ZM286.516 299.336C282.676 296.349 280.671 292.339 280.5 287.304C280.5 281.075 282.804 276.296 287.412 272.968C292.105 269.64 297.865 267.976 304.692 267.976C308.532 267.976 313.225 268.957 318.772 270.92C324.319 272.883 327.092 275.315 327.092 278.216C327.092 281.971 324.617 286.152 319.668 290.76C316.425 293.747 309.3 298.995 298.292 306.504C293.428 303.944 289.503 301.555 286.516 299.336Z" fill="white"/>
</svg>
